<svg id="DESIGN" xmlns="http://www.w3.org/2000/svg" xmlns:xlink="http://www.w3.org/1999/xlink" viewBox="0 0 563.84 563.8"><defs><style>.cls-1{fill:#fff;}.cls-2{fill:url(#linear-gradient);}.cls-3{fill:url(#linear-gradient-2);}.cls-4{fill:url(#linear-gradient-3);}.cls-5{fill:url(#linear-gradient-4);}.cls-6{mask:url(#mask);}.cls-7{fill:url(#linear-gradient-5);}.cls-8{mask:url(#mask-2);}.cls-9{fill:url(#linear-gradient-6);}</style><linearGradient id="linear-gradient" x1="323.3" y1="228.06" x2="640.2" y2="228.06" gradientUnits="userSpaceOnUse"><stop offset="0" stop-color="#f703fc"/><stop offset="0.46" stop-color="#710df7"/><stop offset="0.74" stop-color="#17b0f4"/><stop offset="0.99" stop-color="#24c881"/></linearGradient><linearGradient id="linear-gradient-2" x1="228.03" y1="636.59" x2="228.03" y2="320" xlink:href="#linear-gradient"/><linearGradient id="linear-gradient-3" x1="319.91" y1="731.92" x2="636.81" y2="731.92" xlink:href="#linear-gradient"/><linearGradient id="linear-gradient-4" x1="731.96" y1="640.14" x2="731.96" y2="323.14" xlink:href="#linear-gradient"/><mask id="mask" x="74.49" y="74.48" width="414.85" height="414.85" maskUnits="userSpaceOnUse"><g transform="translate(-198.07 -198.09)"><path class="cls-1" d="M550.26,602.84a139.64,139.64,0,0,1-36.2,14.52v23A21.1,21.1,0,0,1,493,661.42H467a21.1,21.1,0,0,1-21.08-21.08v-23a139.88,139.88,0,0,1-39-16.15L390.7,617.47a21.1,21.1,0,0,1-29.82,0L342.51,599.1a21.05,21.05,0,0,1,0-29.8L358.76,553A140.63,140.63,0,0,1,345.14,523c.61-.31,1.22-.63,1.82-1,18.91-10.26,34.22-27.46,47.57-45.82q1.67-2.28,3.29-4.6A82.61,82.61,0,0,0,548.1,526.76C548.15,552.14,549,577.51,550.26,602.84Z"/><path class="cls-1" d="M615.5,358.91c-11,9.28-20.71,20.43-29.56,32.3-12.56,16.79-23.6,35.43-30,56.16A82.66,82.66,0,0,0,440,407.69c11.85-16.86,24.65-32.55,40.05-45.17a152.68,152.68,0,0,1,34-21v1.06a141.15,141.15,0,0,1,39,16.15l16.26-16.25a21.05,21.05,0,0,1,29.8,0Z"/></g></mask><linearGradient id="linear-gradient-5" x1="135.25" y1="428.57" x2="428.59" y2="135.23" gradientUnits="userSpaceOnUse"><stop offset="0.01" stop-color="#24c881"/><stop offset="0.26" stop-color="#17b0f4"/><stop offset="0.54" stop-color="#710df7"/><stop offset="1" stop-color="#f703fc"/></linearGradient><mask id="mask-2" x="74.49" y="74.48" width="414.85" height="414.85" maskUnits="userSpaceOnUse"><g transform="translate(-198.07 -198.09)"><path class="cls-1" d="M661.42,467v26a21.1,21.1,0,0,1-21.08,21.08h-23a139.94,139.94,0,0,1-16.15,39l16.26,16.26a21.08,21.08,0,0,1,0,29.8L599.1,617.47a21.08,21.08,0,0,1-29.8,0L553,601.21c-.92.57-1.85,1.11-2.78,1.63-1.29-25.33-2.11-50.7-2.16-76.08a82.71,82.71,0,0,0,7.8-79.39c6.44-20.73,17.48-39.37,30-56.16,8.85-11.87,18.6-23,29.56-32.3l2,2a21.1,21.1,0,0,1,0,29.82L601.21,407a139.88,139.88,0,0,1,16.15,39h23A21.1,21.1,0,0,1,661.42,467Z"/><path class="cls-1" d="M514.06,319.63v21.92a152.68,152.68,0,0,0-34,21c-15.4,12.62-28.2,28.31-40.05,45.17a82.58,82.58,0,0,0-42.2,63.9q-1.62,2.32-3.29,4.6C381.18,494.55,365.87,511.75,347,522c-.6.33-1.21.65-1.82,1-.94-2.93-1.77-5.9-2.53-8.91h-23A21.11,21.11,0,0,1,298.55,493V467a21.11,21.11,0,0,1,21.08-21.08h23a141.09,141.09,0,0,1,16.15-39L342.51,390.7a21.11,21.11,0,0,1,0-29.82l18.37-18.37a21.11,21.11,0,0,1,29.82,0L407,358.76a141.09,141.09,0,0,1,39-16.15v-23A21.11,21.11,0,0,1,467,298.55h26A21.11,21.11,0,0,1,514.06,319.63Z"/></g></mask><linearGradient id="linear-gradient-6" x1="135.25" y1="428.57" x2="428.59" y2="135.23" xlink:href="#linear-gradient"/></defs><path class="cls-2" d="M360.87,224.72,356,198.09c-6.1,18-20.13,39.74-32.74,55,19.54-3.38,45.41-4.8,64-1.21l-20.27-17A270.19,270.19,0,0,1,633.43,258l6.77-9.79a282,282,0,0,0-279.33-23.53Z" transform="translate(-198.07 -198.09)"/><path class="cls-3" d="M258,326.77,248.2,320a282,282,0,0,0-23.49,279l-26.64,4.81c18,6.11,39.73,20.16,55,32.78-3.37-19.55-4.77-45.42-1.16-64.05l-17,20.27a270.14,270.14,0,0,1,23.06-266Z" transform="translate(-198.07 -198.09)"/><path class="cls-4" d="M572.77,708l20.28,17a270.14,270.14,0,0,1-266.36-23.08l-6.78,9.79a282,282,0,0,0,279.33,23.53l4.83,26.63c6.1-18,20.13-39.75,32.74-55C617.27,710.22,591.4,711.64,572.77,708Z" transform="translate(-198.07 -198.09)"/><path class="cls-5" d="M761.91,355.86c-18-6.09-39.76-20.12-55.07-32.72,3.39,19.54,4.82,45.41,1.23,64l17-20.28a270.13,270.13,0,0,1-23,266.46l9.79,6.78A282,282,0,0,0,735.28,360.7Z" transform="translate(-198.07 -198.09)"/><g class="cls-6"><circle class="cls-7" cx="281.92" cy="281.9" r="207.42"/></g><g class="cls-8"><circle class="cls-9" cx="281.92" cy="281.9" r="207.42"/></g><path class="cls-1" d="M515.07,477.49l-65.9-38.05a2.88,2.88,0,0,0-4.32,2.5V518a2.88,2.88,0,0,0,4.32,2.49l65.9-38A2.88,2.88,0,0,0,515.07,477.49Z" transform="translate(-198.07 -198.09)"/><path class="cls-1" d="M285,311.66A26.63,26.63,0,1,1,311.66,285,26.66,26.66,0,0,1,285,311.66Zm0-41.36A14.73,14.73,0,1,0,299.75,285,14.75,14.75,0,0,0,285,270.3Z" transform="translate(-198.07 -198.09)"/><path class="cls-1" d="M675,311.66A26.63,26.63,0,1,1,701.58,285,26.66,26.66,0,0,1,675,311.66Zm0-41.36A14.73,14.73,0,1,0,689.67,285,14.75,14.75,0,0,0,675,270.3Z" transform="translate(-198.07 -198.09)"/><path class="cls-1" d="M675,701.58A26.63,26.63,0,1,1,701.58,675,26.66,26.66,0,0,1,675,701.58Zm0-41.36A14.73,14.73,0,1,0,689.67,675,14.75,14.75,0,0,0,675,660.22Z" transform="translate(-198.07 -198.09)"/><path class="cls-1" d="M285,701.58A26.63,26.63,0,1,1,311.66,675,26.66,26.66,0,0,1,285,701.58Zm0-41.36A14.73,14.73,0,1,0,299.75,675,14.75,14.75,0,0,0,285,660.22Z" transform="translate(-198.07 -198.09)"/></svg>