<svg xmlns="http://www.w3.org/2000/svg" viewBox="0 0 565.53 547.36"><defs><style>.cls-1{fill:#fff;}</style></defs><g id="Symbol"><path class="cls-1" d="M282.71,398.12c1.21-1.7,2.46-3.3,3.7-4.84,3.46-4.29,7.52-9.4,11.39-14.78a21.73,21.73,0,0,0,3.1-6.45,75.38,75.38,0,0,1,6.49-15.5,63.33,63.33,0,0,0,4.52-10.5A61.32,61.32,0,0,1,317.25,334a39,39,0,0,1,7-8.59,17.78,17.78,0,0,1,26.65,2.78,46,46,0,0,1,5.62,10.59c1.25,3.27,2.3,6,3.44,8.74a14.62,14.62,0,0,0,7.18,7.47c7.37,3.8,13.53,8.75,19.48,13.54l1.71,1.37a22.42,22.42,0,0,1,4.81,5.34c.46-.44.93-.87,1.4-1.29a34.17,34.17,0,0,0,6.06-7.31,129.9,129.9,0,0,1,11.64-15.35c.84-1,1.67-2.1,2.56-3.3a60.65,60.65,0,0,1,3.89-4.91,75.25,75.25,0,0,0,7.54-10.39c1.23-1.94,2.51-3.81,3.74-5.62,1.4-2,2.72-4,3.93-5.94a65.58,65.58,0,0,0,3.91-7.12q.49-1.06,1.05-2.1c0-.09,0-.19,0-.28a103.22,103.22,0,1,0-156.17,86.49Z" transform="translate(-197.22 -206.31)"/><path class="cls-1" d="M333.71,339.36a19.59,19.59,0,0,0-2.88,4.06,37.56,37.56,0,0,0-3,7.1,107.19,107.19,0,0,1-8.7,19.14c-.85,1.54-1.84,3-2.78,4.51-1.14,1.82-2.27,3.64-3.3,5.52a49.8,49.8,0,0,1-8.12,10.54c-4,4.13-8,8.21-11.61,12.68a29.07,29.07,0,0,0-5.06,8.89,46.24,46.24,0,0,0-2.52,9.78c-.39,3.44-2.16,6.25-4.35,8.8a69.61,69.61,0,0,0-6.2,8.59c-1.1,1.78-2.31,3.49-3.57,5.16a47.53,47.53,0,0,0-5.89,10.29A74.6,74.6,0,0,1,260,465.74a43,43,0,0,1-2.75,4c-4.43,5.65-9.06,11.14-14,16.34a73.7,73.7,0,0,0-6.15,7.62,23.15,23.15,0,0,1-7.05,6.5,36.92,36.92,0,0,0-9.57,8.48,45,45,0,0,1-3.93,4.24A5.06,5.06,0,0,1,215,514a1,1,0,0,1-1.2-.13.91.91,0,0,1-.15-1.05,4.09,4.09,0,0,1,.46-1c2.86-3.82,5-8.19,8.17-11.73s5.58-7.32,8.35-11A153.37,153.37,0,0,1,241,476.79c3.67-3.91,7-8.08,10.32-12.31A51.49,51.49,0,0,0,258,452.25a63,63,0,0,1,8.37-14.41c1.3-1.71,2.42-3.54,3.55-5.36a38.25,38.25,0,0,1,3.46-4.83c2.74-3.23,5-6.8,7.84-10a25.06,25.06,0,0,0,3.94-6.79,54,54,0,0,1,7.92-12.23c4-5,7.94-10,11.67-15.15a30.66,30.66,0,0,0,4.33-8.93,67.23,67.23,0,0,1,5.74-13.77A71.67,71.67,0,0,0,320,348.87a54,54,0,0,1,4.57-10.43,30.74,30.74,0,0,1,5.47-6.71A9.22,9.22,0,0,1,344,333.19a38.08,38.08,0,0,1,4.57,8.65c1.15,3,2.3,6,3.53,9a23.07,23.07,0,0,0,11.16,11.78c7.26,3.75,13.46,8.94,19.76,14a13.76,13.76,0,0,1,4.64,7c.56,1.91,1,3.83,1.43,5.77.23,1,.55,2,.82,3,.62,0,.68-.49.87-.77a56.42,56.42,0,0,1,9.49-11.29,42.71,42.71,0,0,0,7.59-9.1,121.14,121.14,0,0,1,10.88-14.33c2.25-2.6,4.05-5.55,6.34-8.09a84.11,84.11,0,0,0,8.42-11.54c2.49-3.94,5.28-7.69,7.73-11.66a76.11,76.11,0,0,0,4.39-8,34.52,34.52,0,0,1,8.91-11.47,13.77,13.77,0,0,1,5.07-2.72,9.17,9.17,0,0,1,9.24,2.19,23.82,23.82,0,0,1,2.6,2.62,20.7,20.7,0,0,0,8.57,6.08c7.68,3,13,8.64,17.51,15.29,1.88,2.79,3.39,5.85,5.64,8.39a36,36,0,0,1,6,9.82c1,2.36,1.95,4.76,3.2,7a10.57,10.57,0,0,0,4.2,4.31c2.49,1.37,5,2.75,7.44,4.14a36.88,36.88,0,0,1,11.87,10.66,16.43,16.43,0,0,0,8.79,6.38,18.12,18.12,0,0,1,7.76,4.69,29.44,29.44,0,0,0,3.06,2.34c.54.42,1,.37,1.31-.23,3.07-5.12,7.39-9.3,10.65-14.29,2.28-3.5,4.48-7.05,6.92-10.45,2.79-3.87,5.65-7.69,8.69-11.36,2.88-3.47,5.44-7.17,8-10.88a23.43,23.43,0,0,1,9.36-7.87c3.6-1.73,6.26-.92,8.35,2.46a19.78,19.78,0,0,1,1.39,2.9,21.86,21.86,0,0,0,2.12,4.14,13.69,13.69,0,0,0,6.35,5.25,46.29,46.29,0,0,1,13.51,8.56,26.85,26.85,0,0,1,7.67,12.06c.87,2.59,1.56,5.24,2.22,7.89a6.45,6.45,0,0,0,3.18,4.22,20.88,20.88,0,0,1,4.68,3.64,17.91,17.91,0,0,0,2.77,2.19A15.41,15.41,0,0,1,659,394.9c.28,1.09.63,2.16.92,3.25a13.75,13.75,0,0,0,3.51,6.05c1.89,2,3.71,4,5.71,5.88a18.22,18.22,0,0,1,5.63,10.08,15.22,15.22,0,0,0,4.57,8.09q4.71,4.72,8.94,9.89c2,2.48,4.34,4.75,6.6,7a60.48,60.48,0,0,1,7.38,8.68,26,26,0,0,0,5.93,6.06,54.45,54.45,0,0,1,15.11,17.93c.86,1.6,1.79,3.18,2.55,4.83,2.31,5,6,8.84,10.15,12.28a35.48,35.48,0,0,0,9.74,5.17c.29.11.71.1.7.51s-.34.51-.64.63a3.53,3.53,0,0,1-2.22.13c-4.27-1.06-8.48-2.27-12.1-4.95-2.32-1.73-4.84-3.21-7-5.15s-4.34-4.09-7.07-5.46a9.06,9.06,0,0,1-2.47-2c-2.84-3.18-6.52-5-10.4-6.49-.8-.31-1.61-.59-2.43-.83a38.22,38.22,0,0,1-8.7-3.72,3.13,3.13,0,0,0-1.81-.59c-4,.28-7.69-1.22-11.32-2.67a52.85,52.85,0,0,0-13.47-3.56,26.09,26.09,0,0,0-4.5-.15c-5.08.29-10.17.36-15.23.93a99.57,99.57,0,0,0-10.27,1.86l-3,.63a6.89,6.89,0,0,1-1.92.11,1.51,1.51,0,0,1-1.49-1,1.42,1.42,0,0,1,.75-1.63c.58-.38,1.19-.72,1.8-1.05,6-3.26,12.41-5,19-6.26a65.44,65.44,0,0,0,6.65-1.86c.25-.08.51-.16.61-.44a.38.38,0,0,0-.28-.37c-3.63-1.32-6.5-3.9-9.73-5.87a9.47,9.47,0,0,1-2.82-3.05,1.85,1.85,0,0,0-1.87-.91,86,86,0,0,1-12.83-.58c-3.57-.31-7.09-1-10.7-1-4.79-.06-9.34,1-13.91,2.28-3.36.91-6.63,2.1-9.94,3.18a7.43,7.43,0,0,1-2.68.48,2.3,2.3,0,0,1-2.26-1.5,2.06,2.06,0,0,1,.81-2.42,49.46,49.46,0,0,1,5.7-3.9c4.77-3,9.83-5.47,14.81-8.08a41.84,41.84,0,0,1,14.2-4.94c2.23-.28,4.48-.41,6.7-.72s2.59-.39,1.69-2.66a9.45,9.45,0,0,1-.54-4.59,7.88,7.88,0,0,0-1.43-5.78,6.06,6.06,0,0,1-.87-1.72,14.43,14.43,0,0,0-2.56-4.95c-.83-1-.71-2.19-.55-3.39.2-1.5.11-1.65-1.32-1.56a43.25,43.25,0,0,0-10.3,1.59c-2.41.74-4.8,1.51-7.15,2.44l-.45.17c-1.35.5-2.14.37-2.57-.4s-.13-1.65.88-2.52a42.28,42.28,0,0,1,4.67-3.41,123.52,123.52,0,0,0,10.92-7.37l.7-.58a2.25,2.25,0,0,0-1.72-.25,68.27,68.27,0,0,0-11.12,1.65A189.31,189.31,0,0,1,589,400.11a15.26,15.26,0,0,1-5.43-.27c-2.75-.73-3.46-3.22-1.51-5.28a9.6,9.6,0,0,1,2.78-1.88,67.69,67.69,0,0,1,11.46-4.63,54.49,54.49,0,0,0,6.05-2.17,10,10,0,0,0,4.27-3.3c1-1.39,2-2.74,3.09-4.11a19.86,19.86,0,0,0,3-6.38,4.48,4.48,0,0,0,0-2.54,7.34,7.34,0,0,0-.89-2.23c-3-4.41-4.93-9.39-7.73-13.9a28.94,28.94,0,0,1-2-4c-1.57-3.73-2.37-7.47-.35-11.27-.52-.35-.82,0-1.11.16a15.63,15.63,0,0,0-4.91,3.85c-4.31,5.26-8.93,10.28-12.86,15.84-3.54,5-6.68,10.24-8.39,16.19a24.36,24.36,0,0,1-5.46,9.92,53.74,53.74,0,0,0-9.94,16.4,24.22,24.22,0,0,1-3.79,6.5,25.55,25.55,0,0,0-2.77,4.14,52.68,52.68,0,0,1-7.26,10l-3,3.38a11.64,11.64,0,0,1-2,1.81,4.9,4.9,0,0,1-5.85.38,30.39,30.39,0,0,0-5.71-2.54,19.78,19.78,0,0,1-9.27-6.12,3.13,3.13,0,0,0-3.42-1.17,10.31,10.31,0,0,1-6.31-.24,1,1,0,0,0-1.27.36c-.38.51-.79,1-1.14,1.55a89.32,89.32,0,0,0-4.67,8.61A100.89,100.89,0,0,0,497,440.8a4.37,4.37,0,0,1-.48,1.18c-1,1.45-.63,2.72.18,4.15a44.35,44.35,0,0,0,6.55,8.71c2,2.11,4.69,3.37,7.19,4.81a48.9,48.9,0,0,1,7.27,4.72,22.42,22.42,0,0,1,3.81,4.33,26.69,26.69,0,0,1,1.65,2.57,15.93,15.93,0,0,0,7.66,7.06,48.45,48.45,0,0,0,4.52,2.08,20.46,20.46,0,0,1,9.26,6.95c3.1,3.9,6.19,7.81,9.61,11.44a20.15,20.15,0,0,0,2.7,2.52,10.5,10.5,0,0,0,5.79,2.14,33.63,33.63,0,0,0,9.75-.54,22.13,22.13,0,0,1,9.41.18,56.28,56.28,0,0,0,13.28.84,43.23,43.23,0,0,1,12.7,1.59c2,.5,3.94,1,6,1.33a19.94,19.94,0,0,0,9.05-.59,4.93,4.93,0,0,1,2.66-.55c-.07.87-.67,1.26-1.2,1.69a14.52,14.52,0,0,1-12.19,3.12c-4.26-.78-8.54-1.51-12.79-2.35a18.91,18.91,0,0,0-6.71,0c-4,.61-8,.82-12,1.2a12.27,12.27,0,0,1-3.2-.13,12.66,12.66,0,0,0-4.95.14,26.85,26.85,0,0,1-8.48.24c-2.78-.25-5.57-.29-8.34-.64-6.36-.81-12.51-2.18-18.3-5.15-5.34-2.73-10.83-5.18-16.79-6.32a20.94,20.94,0,0,1-3.06-1,19.53,19.53,0,0,0-13.54-.22c-4.33,1.57-8.31.76-12.11-1.63a8.87,8.87,0,0,1-3.44-3.94,2.57,2.57,0,0,0-2.76-1.67,20.83,20.83,0,0,1-5.73-.64c-4.29-1.14-7-3.81-7.64-8.31,0-.21-.08-.42-.11-.64-.41-2.47-1-3.16-3.59-3.08a24.93,24.93,0,0,0-9.71,1.93,47.23,47.23,0,0,0-7,3.7,12.25,12.25,0,0,1-3.16,1.56,4.51,4.51,0,0,1-4.28-.58,4.07,4.07,0,0,0-4-.53,22.23,22.23,0,0,0-5.23,2.43c-1.77,1.11-3.47,2.33-5.14,3.58a6.59,6.59,0,0,1-2.56,1.32,1.84,1.84,0,0,1-2.3-2.53,5.58,5.58,0,0,1,.46-1,42.31,42.31,0,0,1,15.91-17.06c5.66-3.48,11.4-6.83,17.12-10.21,1.24-.74,2.53-1.39,3.81-2.07a9.69,9.69,0,0,0,3.27-2.55c.87-1.1.81-1.34-.52-1.69a13.4,13.4,0,0,0-7.75.47c-.46.15-.9.34-1.37.47a1.31,1.31,0,0,1-1.56-.5,1.4,1.4,0,0,1,.1-1.78,5.06,5.06,0,0,1,1.36-1.12,67.63,67.63,0,0,1,8.74-5.41,6.34,6.34,0,0,0,2.17-1.48.71.71,0,0,0-.55-.64,28.06,28.06,0,0,1-6.41-4l-.12-.1c-3.11-2.9-6.69-3.07-10.5-1.77a37.44,37.44,0,0,0-4.33,1.71c-3.17,1.56-6.5,2.79-9.58,4.55a6,6,0,0,1-1.93.78,1.31,1.31,0,0,1-1.48-.7,1.28,1.28,0,0,1,.12-1.51,7.81,7.81,0,0,1,.94-.87c3.18-2.72,6.78-4.89,10.05-7.48,3.63-2.86,6.36-6.34,6.54-11.28a16,16,0,0,1,1-4.71,10,10,0,0,1,3.13-4.77,2.84,2.84,0,0,0,1.16-2.19c.18-4.32-.71-8.23-4.31-11.06a15.55,15.55,0,0,1-4.87-6.47c-.65-1.61-1.91-2.84-2.73-4.35-.35-.65-.86-.33-1.15.08a32.3,32.3,0,0,0-2.24,3.33c-3,5.36-6.09,10.71-9,16.15-3.18,6-6.33,12.06-8.33,18.61a15,15,0,0,1-3.82,6.06c-2,2-4.19,3.82-6.22,5.81A84.93,84.93,0,0,0,397.27,459a52.7,52.7,0,0,0-2.42,5.44,18.47,18.47,0,0,1-6.49,8.59,34.09,34.09,0,0,0-4.55,4.52c-1.93,2-3.95,3.93-5.93,5.89a6.88,6.88,0,0,0-1.47,1.89,18.58,18.58,0,0,1-8.33,8.21,76.92,76.92,0,0,0-8.68,5.2,45.84,45.84,0,0,1-10.78,5.32q-5.92,2.29-11.63,5.09a17.12,17.12,0,0,1-4.57,1.49,4.58,4.58,0,0,1-.63.1c-.46,0-1.07.25-1.28-.32s.29-1,.78-1.21c1.56-.72,3.17-1.32,4.69-2.1,3-1.52,5.95-3,9-4.24,2-.82,4-1.64,5.95-2.42a20.81,20.81,0,0,0,6.64-4.15c1.85-1.7,3.79-3.31,5.73-4.91a13.75,13.75,0,0,0,4-5.72,17.45,17.45,0,0,1,1.39-2.89,13.56,13.56,0,0,0,1.71-5.65c.12-1.06.1-2.13.26-3.2s0-1.21-1.1-1.32a9,9,0,0,0-3.34.26,33.42,33.42,0,0,1-3.29.77,2.16,2.16,0,0,1-1.86-3.81,28.91,28.91,0,0,1,4.48-3.38,39.28,39.28,0,0,0,5.81-4.56,7.35,7.35,0,0,0,1.89-7.83,12.05,12.05,0,0,0-3.4-5.55c-.94-.88-1.89-1.75-2.8-2.66a3,3,0,0,0-2.47-.92,13.47,13.47,0,0,0-3.93.74,79.55,79.55,0,0,0-11.29,5.41c-4.86,2.85-9.6,5.88-14.45,8.72-1.57.92-3.28,1.58-4.93,2.35a1.55,1.55,0,0,1-2-.24c-.51-.59-.45-1.39.33-2.15,2-2,4.09-3.95,6.21-5.84,4.74-4.23,10.15-7.51,15.57-10.76,1.52-.91,3-1.88,4.48-2.85a28.5,28.5,0,0,0,7.06-7.18,9.54,9.54,0,0,0,1.84-5.23c.19-3.63.51-7.26.81-10.88a7,7,0,0,0-.46-3.15c-.58-1.56-1.17-3.12-1.66-4.7-1.19-3.88-3.33-7.3-5.11-10.9a5.38,5.38,0,0,0-2.91-2.64l-.3-.13a9.38,9.38,0,0,1-6.68-7.15,3.65,3.65,0,0,0-3.05-2.93c-1.1-.24-2.18-.56-3.27-.86a14.09,14.09,0,0,1-3.11-1.29,5.61,5.61,0,0,1-2.89-4.56,9.41,9.41,0,0,1,.17-3,33.07,33.07,0,0,1,2.95-8.48,16.45,16.45,0,0,0,1.22-12.77,42.24,42.24,0,0,0-1.71-5,69,69,0,0,1-3.19-9.27A1,1,0,0,0,333.71,339.36Zm158.21,99a1.3,1.3,0,0,0,.51-1.07c.16-1.12.3-2.23.47-3.35.53-3.55,1.05-7.1,2.62-10.4,1.24-2.61,2.57-5.18,4-7.68a22,22,0,0,1,4.31-5.57,7.15,7.15,0,0,1,6.22-1.92c.3.06.64.19.84-.32a4.67,4.67,0,0,0-1.93-1.8,13.45,13.45,0,0,1-4.53-4.47,2,2,0,0,0-1.86-1c-2,0-4.07,0-6.11.06a15.55,15.55,0,0,1-6.32-.81,4.93,4.93,0,0,1-3.26-6,9.41,9.41,0,0,1,.85-2.42,23.36,23.36,0,0,1,4.46-6.26c1.73-1.74,3.44-3.52,5.14-5.31a12.84,12.84,0,0,0,2.49-3.72,2.56,2.56,0,0,0-.45-3,21.67,21.67,0,0,0-1.58-1.6,11.21,11.21,0,0,1-3.74-6.4,5.26,5.26,0,0,0-2.41-3.45,37.34,37.34,0,0,1-3.74-3,9.57,9.57,0,0,1-3.13-9.44,43.25,43.25,0,0,0,.69-8.8,12.34,12.34,0,0,0-1-4.36,12.54,12.54,0,0,0-5.68-6.11,27.57,27.57,0,0,1-10.92-10.84,17.39,17.39,0,0,0-5.16-5.86c-2.23-1.64-2.19-1.64-4.61-.39a24.71,24.71,0,0,0-8.06,6,90.9,90.9,0,0,0-11.83,18.32c-2.07,4.24-3.8,8.63-5.69,12.95a25.46,25.46,0,0,1-2.82,5.4c-1.32,1.76-2.61,3.54-4,5.21A141.39,141.39,0,0,0,414,376.33a48,48,0,0,1-8.71,10.25,46.44,46.44,0,0,0-4,4.14c-2.22,2.55-3.72,5.65-6.2,8-.46.43-.26.85.14,1.24,1.41,1.39,2.8,2.81,4.23,4.18,3.43,3.31,7.06,6.41,10.32,9.9a28.2,28.2,0,0,0,2.91,2.77c1.09.87,1.08.88,1.78-.4a43.22,43.22,0,0,1,3.22-5.56c3.4-4.49,6.2-9.39,9.84-13.71a9.84,9.84,0,0,0,1-1.47q3.18-5.49,6.35-11a10.28,10.28,0,0,1,2.31-2.86,7,7,0,0,1,9.51.33,18.34,18.34,0,0,1,2,2.31,11.14,11.14,0,0,0,3.42,3.1c1.62.95,3.26,1.87,4.83,2.89a19,19,0,0,1,8.74,12.21c.2.94.41,1.89.55,2.84a5,5,0,0,0,3.12,4.16c1.18.52,2.3,1.16,3.45,1.73a10,10,0,0,1,4,3.58,34.73,34.73,0,0,1,2.62,4.79A59,59,0,0,0,491.92,438.34Z" transform="translate(-197.22 -206.31)"/></g><g id="Name"><path class="cls-1" d="M336.41,691.19l-3.51,8a58.6,58.6,0,0,0-7.35-2.16,31.78,31.78,0,0,0-7-.82c-3.79,0-6.81.79-9.06,2.35a7,7,0,0,0-3.38,5.95,5.86,5.86,0,0,0,2.43,4.91,26.86,26.86,0,0,0,6,3.34c2.41,1,5,2,7.85,3a36.59,36.59,0,0,1,7.84,3.84,21.34,21.34,0,0,1,6,5.9,15.93,15.93,0,0,1,2.44,9.15,18.64,18.64,0,0,1-1.58,7.8,16.53,16.53,0,0,1-4.69,6,21.85,21.85,0,0,1-7.75,3.87,39.12,39.12,0,0,1-10.87,1.36,42.31,42.31,0,0,1-7.17-.55,39.1,39.1,0,0,1-5.77-1.39,32.43,32.43,0,0,1-4.5-1.85c-1.3-.66-2.39-1.26-3.29-1.81l4.32-8.56a35.82,35.82,0,0,0,8,3.34,29.48,29.48,0,0,0,8,1.26,27.53,27.53,0,0,0,4.46-.45,20,20,0,0,0,5.1-1.58,13.26,13.26,0,0,0,4.19-3,6.75,6.75,0,0,0,1.76-4.78,7.19,7.19,0,0,0-1.4-4.46,13.22,13.22,0,0,0-3.69-3.25,33,33,0,0,0-5.23-2.52q-2.94-1.12-6-2.35c-2-.81-4-1.66-6-2.57a22.67,22.67,0,0,1-5.22-3.29,15.47,15.47,0,0,1-3.7-4.5,12.82,12.82,0,0,1-1.4-6.18,17,17,0,0,1,1.35-6.58,16.62,16.62,0,0,1,4.06-5.77,20.31,20.31,0,0,1,6.72-4.06,26.07,26.07,0,0,1,9.33-1.53,37.23,37.23,0,0,1,6.36.54q3.1.54,5.63,1.22c1.68.45,3.11.88,4.28,1.3S336.05,691,336.41,691.19Z" transform="translate(-197.22 -206.31)"/><path class="cls-1" d="M388,687.58V697h-16.5v56h-9.82V697H345.52v-9.38Z" transform="translate(-197.22 -206.31)"/><path class="cls-1" d="M423.77,753.67A27.2,27.2,0,0,1,414,752a24.17,24.17,0,0,1-7.89-4.82,22.32,22.32,0,0,1-5.32-7.48,24,24,0,0,1-1.94-9.79V687.58h9.92v42a14.76,14.76,0,0,0,1.12,5.82,15,15,0,0,0,3.16,4.69,14.52,14.52,0,0,0,4.73,3.15,16.12,16.12,0,0,0,11.86,0,14.42,14.42,0,0,0,4.78-3.15,15.44,15.44,0,0,0,3.2-4.69,14.27,14.27,0,0,0,1.17-5.82v-42h9.92v42.28a24,24,0,0,1-1.94,9.79,22.46,22.46,0,0,1-5.32,7.48,24.14,24.14,0,0,1-7.93,4.82A27.65,27.65,0,0,1,423.77,753.67Z" transform="translate(-197.22 -206.31)"/><path class="cls-1" d="M464.07,687.58h16.41q9.91,0,16.77,3a31.46,31.46,0,0,1,11.14,7.8,30.38,30.38,0,0,1,6.22,10.82,38.74,38.74,0,0,1,1.94,12,32.35,32.35,0,0,1-2.62,13.21,30,30,0,0,1-7.12,10,31.47,31.47,0,0,1-10.46,6.35,35.8,35.8,0,0,1-12.62,2.21H464.07Zm18.22,56A29.47,29.47,0,0,0,492,742a22.36,22.36,0,0,0,7.75-4.46,20.07,20.07,0,0,0,5.14-7.21,24.75,24.75,0,0,0,1.85-9.87,24.2,24.2,0,0,0-2.07-10.37,22.34,22.34,0,0,0-5.41-7.35,22,22,0,0,0-7.53-4.33,26.86,26.86,0,0,0-8.52-1.39H473.9v46.52Z" transform="translate(-197.22 -206.31)"/><path class="cls-1" d="M528.18,687.58H538v65.36h-9.82Z" transform="translate(-197.22 -206.31)"/><path class="cls-1" d="M549.45,720.31a32.11,32.11,0,0,1,2.62-12.85,34.15,34.15,0,0,1,17.76-17.94,32.9,32.9,0,0,1,25.92,0,33.85,33.85,0,0,1,10.64,7.26,34.81,34.81,0,0,1,7.21,10.68,32.68,32.68,0,0,1,0,25.83,34.4,34.4,0,0,1-7.21,10.59,33.6,33.6,0,0,1-10.64,7.17,33.36,33.36,0,0,1-25.92,0,33.82,33.82,0,0,1-17.76-17.76A32.21,32.21,0,0,1,549.45,720.31Zm9.83.09a23.9,23.9,0,0,0,6.94,17,24.72,24.72,0,0,0,7.58,5.14,22.7,22.7,0,0,0,9.19,1.89,22.37,22.37,0,0,0,9.15-1.89,23.81,23.81,0,0,0,12.53-12.76,23.84,23.84,0,0,0,1.85-9.42,23.9,23.9,0,0,0-6.94-16.95,24.39,24.39,0,0,0-7.53-5.14,22.38,22.38,0,0,0-9.15-1.9,22.71,22.71,0,0,0-9.19,1.9A23.66,23.66,0,0,0,561.13,711,24.11,24.11,0,0,0,559.28,720.4Z" transform="translate(-197.22 -206.31)"/><path class="cls-1" d="M664.49,691.19l-3.51,8a58.11,58.11,0,0,0-7.35-2.16,31.65,31.65,0,0,0-7-.82c-3.78,0-6.8.79-9.06,2.35a7,7,0,0,0-3.38,5.95,5.85,5.85,0,0,0,2.44,4.91,26.43,26.43,0,0,0,6,3.34q3.6,1.49,7.84,3a36.36,36.36,0,0,1,7.84,3.84,21.38,21.38,0,0,1,6,5.9,15.93,15.93,0,0,1,2.43,9.15,18.64,18.64,0,0,1-1.58,7.8,16.42,16.42,0,0,1-4.69,6,21.85,21.85,0,0,1-7.75,3.87A39.1,39.1,0,0,1,642,753.67a42.14,42.14,0,0,1-7.17-.55,38.49,38.49,0,0,1-5.77-1.39,32.08,32.08,0,0,1-4.51-1.85c-1.29-.66-2.39-1.26-3.29-1.81l4.33-8.56a35.74,35.74,0,0,0,8,3.34,29.54,29.54,0,0,0,8,1.26,27.64,27.64,0,0,0,4.47-.45,20.05,20.05,0,0,0,5.09-1.58,13.26,13.26,0,0,0,4.19-3,6.7,6.7,0,0,0,1.76-4.78,7.13,7.13,0,0,0-1.4-4.46,13.22,13.22,0,0,0-3.69-3.25,32.63,32.63,0,0,0-5.23-2.52c-2-.75-3.95-1.53-6-2.35s-4-1.66-6-2.57a22.52,22.52,0,0,1-5.23-3.29,15.63,15.63,0,0,1-3.7-4.5,12.82,12.82,0,0,1-1.4-6.18,17,17,0,0,1,1.36-6.58,16.46,16.46,0,0,1,4-5.77,20.51,20.51,0,0,1,6.72-4.06,26.11,26.11,0,0,1,9.33-1.53,37.14,37.14,0,0,1,6.36.54q3.11.54,5.63,1.22c1.69.45,3.11.88,4.29,1.3S664.13,691,664.49,691.19Z" transform="translate(-197.22 -206.31)"/><path class="cls-1" d="M308.87,538.34,253,662.45,197.22,538.34h32.7l24,58.93,24.2-58.93Z" transform="translate(-197.22 -206.31)"/><path class="cls-1" d="M350.31,662.45,326.1,603.52l-24,58.93h-32.7L325.2,538.34,381,662.45Z" transform="translate(-197.22 -206.31)"/><path class="cls-1" d="M559.48,633.54v28.91h-83.1V538.34H558v28.9H506.19V589.1H554.6V618H506.19v15.53Z" transform="translate(-197.22 -206.31)"/><path class="cls-1" d="M655.47,609a48.29,48.29,0,0,1-6,4.79,35.45,35.45,0,0,1-6.69,3.53l23.31,45.34h-33.6L611,620.72H600.91v41.73H571.1V538.34h56.37a45.5,45.5,0,0,1,15.08,3.25,38.25,38.25,0,0,1,12.74,8.49,40.17,40.17,0,0,1,12.28,29.45,40.9,40.9,0,0,1-3.16,15.9A43.14,43.14,0,0,1,655.47,609Zm-54.56-17.16H626a10.9,10.9,0,0,0,8.31-3.7,12.45,12.45,0,0,0,0-17.16,10.91,10.91,0,0,0-8.31-3.71H600.91Z" transform="translate(-197.22 -206.31)"/><polygon class="cls-1" points="509.71 332.03 466.59 427.9 478.63 451.32 481.1 456.14 486.59 456.14 510.61 397.21 534.82 456.14 565.53 456.14 509.71 332.03"/><polygon class="cls-1" points="238.86 332.03 238.86 385.5 200.56 385.5 200.56 332.03 170.75 332.03 170.75 400.49 193.76 451.66 195.78 456.14 200.56 456.14 200.56 422.9 200.56 414.41 238.86 414.41 238.86 422.9 238.86 456.14 268.66 456.14 268.66 332.03 238.86 332.03"/></g></svg>